<svg id="Capa_1" xmlns="http://www.w3.org/2000/svg" viewBox="0 0 388 388" enable-background="new 0 0 388 388"><style>.st0{fill:#F2ECD4;} .st1{fill:#B0232A;} .st2{fill:#38291E;} .st3{filter:url(#Adobe_OpacityMaskFilter);} .st4{fill:#FFFFFF;} .st5{mask:url(#mask-2);fill:#38291E;}</style><g id="logo"><path id="Fill-1" class="st0" d="M193.9 4.5C89.5 4.5 4.5 89.5 4.5 193.9s85 189.4 189.4 189.4 189.4-85 189.4-189.4S298.4 4.5 193.9 4.5"/><path id="Fill-3" class="st1" d="M42.3 163.2l8.7 17.5 19.3 2.8-14 13.7 3.3 19.3-17.3-9.1-17.3 9.1 3.3-19.3-14-13.7 19.4-2.8z"/><path id="Fill-5" class="st1" d="M345 163.2l8.7 17.5 19.3 2.8-14 13.7 3.3 19.3-17.3-9.1-17.3 9.1 3.3-19.3-14-13.7 19.4-2.8z"/><path id="Fill-7" class="st2" d="M44.4 154.5h.2c.4 0 .8-.3.9-.7 3.8-14.2 9.6-27.7 17.3-40.3.3-.4.1-1-.3-1.2-.4-.3-1-.1-1.3.3-7.8 12.7-13.7 26.4-17.5 40.7-.1.2 0 .5.1.7.1.3.3.5.6.5"/><path id="Fill-9" class="st2" d="M342.4 153.9c.1.4.5.7.9.7h.2c.2-.1.4-.2.6-.4.1-.2.2-.5.1-.7-3.7-13.6-9.2-26.6-16.4-38.7-.2-.4-.8-.6-1.2-.3-.2.1-.4.3-.4.6-.1.2 0 .5.1.7 7.1 11.8 12.5 24.7 16.1 38.1"/><path id="Fill-11" class="st2" d="M346 222.5h-.2c-.4 0-.8.3-.9.7-4.5 23.3-14.5 45.6-29.1 64.5-.3.4-.2 1 .2 1.3.2.1.4.2.5.2.3 0 .6-.1.7-.4 14.7-19.1 24.9-41.7 29.4-65.2.2-.5-.1-1-.6-1.1"/><path id="Fill-13" class="st2" d="M43 223.2c-.1-.4-.5-.7-.9-.7h-.2c-.5.1-.8.6-.7 1.1 4.1 21.4 12.6 41.3 25.1 59.3.2.2.4.4.7.4.2 0 .4-.1.5-.2.4-.3.5-.9.2-1.3-12.3-17.7-20.6-37.4-24.7-58.6"/><path id="Fill-15" class="st2" d="M95.6 86.8c1.6 2.5 3.5 4.9 5.5 7.3-4.3 4.5-7.3 7.7-9 9.7-1.7 1.9-4.5 5.3-8.5 10-.2.2-.4.1-.8-.2-.3-.3-.4-.5-.2-.7 1.1-1.6 1.7-2.9 1.8-3.7.1-.9-.4-1.8-1.6-2.8l-17-15.2c-.8-.8-1.5-1.2-2.1-1.3-.5-.1-1.1 0-1.8.4s-1.5 1-2.6 1.9c-.2.2-.4.1-.8-.2-.3-.3-.4-.5-.2-.7.7-.8 1.6-1.7 2.7-2.8 1-1 1.9-1.9 2.5-2.6.7-.7 1.4-1.7 2.3-2.8.9-1.2 1.7-2.2 2.5-3 .2-.2.4-.1.8.2.3.3.4.5.2.7-.8 1.1-1.3 2-1.6 2.7-.3.7-.3 1.3-.2 1.8.2.5.7 1.1 1.5 1.9l17.6 15.7c1.4 1.3 2.8 1.2 4-.2l3.2-3.6c1.3-1.5 2-3.1 2.2-4.8.1-1.7-.5-4.1-1.7-7-.1-.1 0-.3.2-.5.1-.2.3-.3.5-.3s.5 0 .6.1"/><path id="Fill-17" class="st2" d="M111.9 67.3l-10.5-7.9 3.1 12.8 7.4-4.9zm20.3 3.7c.3.4.3.6.1.8-.9.6-2 1.3-3.2 2-1.1.6-1.9 1.1-2.7 1.6-.8.6-1.8 1.3-3 2.2-1.2.9-2.3 1.7-3.2 2.3-.2.1-.4 0-.7-.3-.3-.4-.3-.6-.1-.7 1.2-.9 1.9-1.6 2.2-2.2.3-.6.3-1.2 0-1.8-.2-.4-.8-.8-1.5-1.4l-6.9-5.2-8.3 5.6 1.9 7.8c.3 1 .6 1.8.9 2.2.8 1.2 2.3 1.1 4.6-.3.2-.1.4 0 .6.4.3.4.3.6.1.8-.8.5-1.7 1.1-2.8 1.7-1 .5-1.8 1.1-2.6 1.6-.6.4-1.3.9-2.1 1.6-.9.7-1.6 1.3-2.2 1.7-.2.1-.4 0-.6-.3-.3-.4-.2-.7.1-.9 1-.9 1.7-1.8 2-2.7.3-1 .3-2.4-.1-4.5l-6.3-29.5c-.1-.3.1-.5.3-.7.3-.2.6-.3.8-.1l24 17.5c1.4 1 2.6 1.5 3.9 1.6 1.2.1 2.5-.3 4-1 .3-.2.6-.2.8.2z"/><path id="Fill-19" class="st2" d="M163.7 26.6c.1.5 0 .8-.3.9-1.3.5-2.3 1.2-2.8 1.9-.5.8-.9 2.2-1.2 4.4L155.7 64c0 .3-.2.5-.5.6-.3.1-.6 0-.7-.2L136 40.8c-1-1.3-1.8-2.2-2.3-2.6-.5-.4-1.1-.6-1.9-.6-.7-.1-1.8 0-3.3.3-.1 0-.2 0-.4-.1-.1-.1-.2-.2-.3-.4-.1-.4-.1-.7.1-.7 1-.3 2.2-.6 3.5-.9 1.2-.3 2.3-.5 3.3-.8.9-.3 2.1-.7 3.5-1.2s2.7-.9 3.7-1.3c.2-.1.4.1.6.5.1.4.1.7 0 .7-1.3.5-2.3.9-2.8 1.4-.5.5-.7 1-.5 1.6.1.4.5 1 1.2 1.9l14.3 18.8 2.2-23c0-1-.1-1.7-.2-2.2-.5-1.5-2.1-2-4.8-1.3-.2.1-.3-.1-.5-.6-.1-.4 0-.7.2-.8.7-.2 1.7-.5 2.9-.7 1.3-.3 2.4-.6 3.3-.8.7-.2 1.6-.5 2.6-.9 1.1-.4 2-.7 2.7-1 .3 0 .5.2.6.5"/><path id="Fill-21" class="st2" d="M186.4 57.1c.1.5-.1.7-.3.7-1.1.1-2.4.2-3.9.3-1.4.1-2.6.1-3.6.2s-2.2.3-3.6.5c-1.5.3-2.8.4-3.9.6-.3 0-.4-.2-.5-.6 0-.4.1-.6.3-.7 1.9-.4 3.2-.9 3.9-1.5.6-.6.9-1.6.7-3.1l-2.4-22.7c-.1-1.1-.3-1.9-.7-2.3-.3-.4-.9-.7-1.6-.9-.7-.2-1.8-.3-3.2-.3-.3 0-.4-.2-.5-.6 0-.4.1-.7.3-.7 1.1-.1 2.4-.2 3.9-.3 1.4-.1 2.6-.1 3.6-.2s2.2-.3 3.6-.5c1.5-.3 2.7-.4 3.8-.6.3 0 .4.2.5.6 0 .4-.1.7-.3.7-1.3.3-2.3.6-3 1-.7.3-1.1.8-1.4 1.2-.2.5-.3 1.3-.2 2.4l2.4 22.7c.1 1.1.3 1.9.7 2.3.3.4.9.7 1.6.9.7.2 1.8.3 3.1.3.5 0 .6.2.7.6"/><path id="Fill-23" class="st2" d="M211.4 34c.4-4.7-1.5-7.3-5.6-7.6-1.4-.1-2.4-.1-3.1.1-.7.2-1.2.5-1.5.9-.3.5-.4 1.3-.5 2.5l-.8 10.8c.9.2 2.1.4 3.5.5 2.6.2 4.5-.3 5.8-1.4 1.2-1.1 2-3.1 2.2-5.8m10.9 25.8c0 .5-.2.7-.4.6-.6 0-5-1.3-7.5-1.4h-2.3l-6.3-12.3c-.9-1.7-1.7-2.9-2.3-3.4-.6-.5-1.9-.9-3.8-1l-.8 10.4c-.1 1.1 0 1.9.2 2.4s.7.9 1.4 1.2c.7.3 1.7.6 3 .9.3.1.4.3.4.7 0 .4-.2.7-.4.6-1.1-.1-2.4-.2-3.9-.4-1.4-.2-2.6-.3-3.6-.4-1-.1-2.2-.1-3.6-.1-1.5 0-2.8-.1-3.9-.1-.3 0-.4-.3-.3-.7 0-.4.2-.6.4-.6 1.4-.1 2.4-.2 3.1-.4.7-.2 1.3-.5 1.6-1 .3-.4.5-1.2.6-2.3l1.7-22.8c.1-1.1 0-1.9-.2-2.4s-.7-.9-1.4-1.2c-.7-.3-1.7-.6-3.1-.9-.3 0-.4-.2-.3-.7 0-.4.2-.7.4-.6 1.1.1 2.4.2 3.8.4s2.6.3 3.6.4c1 .1 2.2.1 3.6.1 1.5 0 2.8.1 3.9.2 3.6.3 6.3 1.2 8.2 2.9 1.9 1.7 2.7 3.9 2.5 6.6-.1 1.7-.9 3.3-2.3 4.6-1.4 1.4-3.3 2.4-5.5 3l6.5 12.7c.6 1.1 1.3 2 2.3 2.5 1 .6 2.7 1.7 4.3 2 .3 0 .5.1.4.5"/><path id="Fill-25" class="st2" d="M258.7 56.5c-.1.4-.3.6-.6.5-1.9-.4-3.3-.4-4.1-.2-.8.3-1.5 1.1-1.9 2.5l-.9 2.7c-.8 2.4-1.1 4.1-1.1 5.1-2.3.2-4.7.1-7.3-.1-2.5-.3-4.7-.7-6.5-1.3-3.5-1.1-6.4-2.8-8.6-5.1-2.2-2.2-3.6-4.9-4.3-8-.6-3.1-.5-6.2.6-9.3 1-3.1 2.7-5.8 5.2-7.9 2.5-2.1 5.3-3.4 8.6-4 3.3-.5 6.7-.2 10.3.9 1.4.5 3.2 1.3 5.4 2.5 1.9 1.1 3.4 1.8 4.5 2.2-.5 2.2-1 5-1.5 8.2-.1.2-.4.3-.9.1-.3-.1-.5-.3-.5-.6.3-5.6-2.5-9.4-8.3-11.3-3.6-1.2-7.2-.7-10.6 1.5-3.4 2.2-5.8 5.5-7.2 9.8-1.4 4.2-1.3 8.2.2 11.9 1.5 3.7 4 6.2 7.5 7.3 5.2 1.7 8.2 1.2 9-1.3l2-6.1c.3-.8.1-1.6-.6-2.2-.7-.6-2.5-1.6-5.5-2.9-.2-.1-.3-.3-.2-.8.1-.4.3-.6.6-.5 1 .3 2.5.9 4.5 1.6 1.9.7 3.3 1.2 4.3 1.5.9.3 2.2.7 3.7 1.1 1.7.5 3 .8 4 1.2.3.3.4.6.2 1"/><path id="Fill-27" class="st2" d="M281.4 78.8c-2.6 1.7-4.7 3.3-6.7 5.1-5.1-3.3-8.9-5.5-11.2-6.9-2.2-1.3-6-3.5-11.3-6.5-.2-.1-.2-.4 0-.8.2-.3.4-.5.7-.4 1.2.6 2.2.9 3 1 .7.1 1.4.1 1.8-.2.5-.2 1-.8 1.6-1.8l11.9-19.6c.6-1 .9-1.7.9-2.2 0-.5-.2-1.1-.7-1.7-.5-.6-1.2-1.3-2.3-2.2-.2-.1-.2-.4 0-.8s.5-.5.7-.4c3.4 2.3 6.9 4.5 10.6 6.7 3.7 2.2 7.3 4.3 10.9 6.3-1 2.3-1.8 4.7-2.5 7.2-.2.3-.5.3-1 0-.2-.1-.3-.3-.3-.6 1-3.9-.2-6.9-3.6-8.9l-4.2-2.5c-1.6-1-2.9-.6-3.9 1l-5.6 9.2 5.2 3.2c1.4.8 2.5 1.1 3.4.8.9-.3 1.9-1.3 3.1-2.8.1-.2.4-.2.8 0s.5.5.4.7c-.4.7-1 1.5-1.7 2.5s-1.2 1.8-1.6 2.4c-.4.7-.9 1.5-1.4 2.6l-1.5 2.7c-.1.2-.4.2-.8 0s-.5-.5-.4-.7c.8-1.8 1.2-3.2 1.1-4.2-.1-1-.8-1.9-2.2-2.7l-5.2-3.2-6.2 10.2c-1 1.6-.7 2.9.9 3.9l4.5 2.7c1.6 1 3.6 1.5 5.9 1.4 2.3-.1 4.3-.7 6-1.9.1-.1.3-.1.5 0s.3.3.4.5c.1.6 0 .8 0 .9"/><path id="Fill-29" class="st2" d="M330.1 92c-.3.3-.5.3-.7.2-1.6-1.3-2.8-2-3.7-2.2-.9-.2-1.9.2-3 1.2l-21 19.4c-.2.2-.5.2-.8-.1-.1-.1-.2-.4-.3-.8l3.1-37.7-16.4 15.3c-.1.1-.2.2-.3.2-.9.9-1.2 1.7-1.1 2.6.2.9.9 2.2 2.1 3.8.2.2.1.5-.2.7-.3.3-.6.4-.8.2-.6-.6-3.7-4.5-4.4-5-1.3-1.2-4.6-3.5-5.1-4.1-.2-.2-.1-.5.2-.8.3-.3.6-.3.8-.1 1.6 1.3 3.2 1.8 4.1 2 .9.2 1.9-.3 3-1.3l17.1-15.2.2-.1c.9-.9 1.3-1.8 1.2-2.7-.2-.9-.9-2.2-2.1-3.9-.2-.2-.1-.4.2-.7.3-.3.6-.4.8-.2.4.4.9 1 1.5 1.8.6.7 1 1.2 1.3 1.6.4.4.9.9 1.5 1.4.6.5 1.1 1 1.5 1.4l-2.7 35L321 89.6c1-1 1.4-1.9 1.3-2.9-.1-1-.9-2.3-2.2-4-.2-.2-.1-.5.2-.7.3-.3.6-.4.8-.2.6.6 1.4 1.5 2.3 2.6.9 1 1.6 1.8 2.1 2.4.6.6 1.4 1.3 2.4 2.3 1 .9 1.7 1.6 2.2 2.1.4.3.4.5 0 .8"/><path id="Fill-31" class="st2" d="M93.6 318.4c-1.3.9-2.6 1.9-4 2.9-.4-.4-1.2-.9-2.5-1.7-1.6-1-2.7-1.8-3.4-2.4-1.6-1.5-2.7-3.1-3.4-4.8-.6-1.8-.8-3.5-.3-5.3.4-1.8 1.3-3.4 2.6-4.9 1.3-1.4 2.9-2.4 4.7-3 1.8-.6 3.7-.6 5.5-.1 1.9.5 3.6 1.4 5.2 2.9.7.6 1.5 1.5 2.5 2.7.8.9 1.3 1.5 1.7 1.9-.8 1.1-1.8 2.4-2.8 4.1-.1.1-.3.1-.5-.1-.1-.1-.2-.3-.1-.4.6-1.2.8-2.5.5-3.9-.3-1.4-1-2.6-2.1-3.6-1.7-1.5-3.7-2.1-6.1-1.8-2.4.3-4.5 1.5-6.3 3.5-1.8 1.9-2.7 4.1-2.8 6.5-.1 2.4.6 4.3 2.2 5.8 2.5 2.3 5.4 2.8 8.7 1.3.2-.1.3 0 .4.1.3 0 .4.1.3.3"/><path id="Fill-33" class="st2" d="M111 331.2c-1.6.9-3 1.9-4.3 2.8-2.9-2.1-5-3.6-6.3-4.5-1.3-.9-3.4-2.3-6.5-4.2-.1-.1-.1-.2 0-.5.1-.2.3-.3.4-.2.7.4 1.3.6 1.7.7.4.1.8.1 1.1 0 .3-.1.6-.5 1-1l7.7-11.2c.4-.5.6-1 .6-1.3 0-.3-.1-.7-.3-1-.3-.4-.7-.8-1.3-1.4-.1-.1-.1-.2 0-.5.2-.2.3-.3.4-.2 1.9 1.5 3.9 2.9 6 4.3s4.2 2.8 6.2 4.1c-.7 1.4-1.2 2.7-1.7 4.2-.1.2-.3.1-.6 0-.1-.1-.2-.2-.1-.3.7-2.3.1-4.1-1.8-5.4l-2.4-1.6c-.9-.6-1.7-.5-2.4.5l-3.6 5.3 3 2.1c.8.5 1.5.7 2 .6.5-.2 1.2-.7 1.9-1.5.1-.1.2-.1.5 0 .2.1.3.3.2.4-.3.4-.6.9-1.1 1.5-.4.5-.8 1-1 1.4-.3.4-.6.9-.9 1.5-.4.6-.7 1.2-1 1.6-.1.1-.2.1-.5 0-.2-.1-.3-.3-.2-.4.5-1 .8-1.9.8-2.5 0-.6-.4-1.1-1.2-1.7l-3-2.1-4 5.8c-.6.9-.5 1.7.4 2.3l2.6 1.8c.9.6 2.1 1 3.4 1 1.3 0 2.6-.3 3.6-.9.1-.1.2 0 .3 0 .1.1.2.2.2.3.2 0 .2.1.2.2"/><path id="Fill-35" class="st2" d="M129.9 329.7c1.3-2.5.8-4.3-1.4-5.4-.7-.4-1.3-.6-1.7-.6-.4-.1-.8 0-1 .2-.2.2-.5.6-.8 1.2l-2.9 5.8c.5.3 1.1.7 1.8 1 1.4.7 2.6.9 3.5.5 1-.4 1.8-1.2 2.5-2.7m.2 16.2c-.1.2-.2.3-.4.3-.3-.2-.8-.4-1.5-.9-.5-.3-.8-.5-1-.6-.2-.1-.7-.3-1.2-.5-.6-.2-1-.4-1.2-.5l-.7-8.3c-.1-1.2-.3-1.9-.5-2.4-.2-.4-.8-.9-1.9-1.4l-2.8 5.5c-.3.6-.4 1.1-.4 1.4 0 .3.2.6.5 1 .3.3.8.7 1.5 1.2.1.1.2.2 0 .5-.1.2-.2.3-.4.3-.6-.3-1.2-.7-2-1.1-.7-.4-1.4-.8-1.9-1-.5-.3-1.2-.6-2-.9-.8-.3-1.5-.7-2.1-.9-.1-.1-.1-.2 0-.5.1-.2.2-.3.4-.2.8.3 1.4.4 1.8.5.4.1.8 0 1.1-.2.3-.2.6-.5.9-1.2l6-12.1c.3-.6.4-1.1.4-1.4 0-.3-.2-.6-.5-1-.3-.3-.8-.7-1.5-1.2-.1-.1-.1-.2 0-.5.1-.2.2-.3.4-.3.6.3 1.2.7 2 1.1.7.4 1.4.8 1.9 1 .5.3 1.2.6 2 .9.8.3 1.5.7 2.1.9 1.9.9 3.2 2.1 3.9 3.4.6 1.3.6 2.7-.1 4.2-.5.9-1.2 1.6-2.3 2-1.1.4-2.3.6-3.7.4l.8 8.4c.1.7.3 1.4.7 1.9.4.5 1 1.1 1.8 1.6 0 .3 0 .4-.1.6"/><path id="Fill-37" class="st2" d="M156.7 334.7c-.1.3-.2.4-.5.3-.8-.2-1.5-.2-2 0s-1.2.7-2.1 1.7L139.8 350c-.1.1-.3.2-.5.1s-.3-.2-.3-.4l-.7-17.7c0-1-.1-1.7-.2-2-.1-.4-.3-.7-.7-1-.3-.3-.9-.6-1.7-1-.1 0-.1-.1-.1-.2v-.3c.1-.2.2-.4.3-.3.6.2 1.3.5 2 .8.7.3 1.3.5 1.9.7.6.2 1.3.4 2.1.6.9.2 1.6.5 2.2.7.1.1.2.2.1.5-.1.2-.2.4-.3.3-.8-.2-1.4-.3-1.8-.3-.4 0-.7.3-.8.6-.1.2-.1.7-.1 1.3l.4 14 9.1-10.3c.3-.5.6-.8.7-1.1.3-.9-.3-1.7-1.8-2.3-.1 0-.1-.2 0-.4.1-.3.2-.3.4-.3.4.1 1 .4 1.6.7.7.3 1.4.6 1.9.7.4.1.9.3 1.6.5.7.2 1.2.3 1.6.5v.3"/><path id="Fill-39" class="st2" d="M174.1 353.1c-1.1 1.5-2 2.9-2.7 4.3-3.5-.8-6.1-1.3-7.6-1.6-1.5-.3-4-.7-7.6-1.2-.2 0-.2-.2-.2-.4s.1-.4.3-.3c.8 0 1.4 0 1.9-.1.4-.1.8-.2 1-.5.2-.2.4-.7.5-1.3l2.4-13.3c.1-.7.1-1.1 0-1.4-.1-.3-.4-.6-.7-.8-.4-.2-1-.5-1.8-.7-.2 0-.2-.2-.2-.4 0-.3.1-.4.3-.3 2.4.5 4.8 1 7.3 1.5s5 .8 7.4 1.2c0 1.5 0 3 .2 4.5 0 .2-.2.3-.5.2-.2 0-.2-.1-.3-.3-.3-2.4-1.6-3.7-3.9-4.2l-2.9-.5c-1.1-.2-1.7.3-1.9 1.4l-1.1 6.3 3.6.6c.9.2 1.6.1 2-.3.4-.4.8-1.1 1.1-2.2 0-.1.2-.2.4-.2.3 0 .4.1.3.3-.1.5-.2 1.1-.4 1.8s-.3 1.2-.4 1.7c-.1.4-.2 1-.2 1.7-.1.8-.2 1.4-.2 1.8 0 .1-.2.2-.4.2-.3 0-.4-.1-.4-.3.1-1.2 0-2-.3-2.6-.3-.5-.9-.9-1.8-1l-3.6-.6-1.3 7c-.2 1.1.2 1.8 1.3 2l3.1.6c1.1.2 2.3 0 3.5-.5 1.2-.5 2.2-1.3 2.9-2.3.1-.1.1-.1.3-.1.1 0 .2.1.3.2.3-.1.3 0 .3.1"/><path id="Fill-41" class="st2" d="M195.2 354.2c-.6 2.1-1.1 3.8-1.2 5-1-.2-3.7-.5-8.3-.7-4.8-.2-7.6-.3-8.5-.1-.2 0-.4-.2-.4-.5l.1-.2 14.7-17.6-6.5-.3c-2.9-.1-5 1.1-6.3 3.6-.1.2-.2.3-.3.3-.3 0-.5-.1-.5-.3l.1-.2c.9-2.2 1.5-3.8 1.8-4.8.8.2 3.3.5 7.6.7 4.5.2 7.1.3 7.9.1.2 0 .4.2.3.6 0 .1 0 .2-.1.2l-14.7 17.6 7.6.4c1.4.1 2.6-.2 3.6-.9 1-.6 1.8-1.6 2.2-2.8.1-.2.2-.2.3-.2.4-.3.6-.2.6.1"/><path id="Fill-43" class="st2" d="M208.8 349.2l-3.1-7.1-2.1 7.5 5.2-.4zm9.4 7.8c0 .3 0 .4-.2.4-.7.1-1.4.1-2.2.1-.7 0-1.3 0-1.8.1-.6 0-1.3.1-2.2.3-.9.1-1.7.2-2.3.3-.2 0-.2-.1-.3-.4 0-.3 0-.4.1-.4.8-.1 1.4-.3 1.8-.5.4-.2.5-.5.5-.9 0-.2-.1-.6-.4-1.2l-2-4.7-5.9.5-1.3 4.6c-.2.6-.2 1.1-.2 1.4.1.8.9 1.2 2.4 1.2.1 0 .2.1.2.4 0 .3 0 .4-.2.4-.6 0-1.2.1-1.9.1s-1.3 0-1.8.1c-.4 0-.9.1-1.5.2s-1.2.2-1.7.2c-.1 0-.2-.1-.2-.3 0-.3.1-.4.3-.5.8-.1 1.4-.4 1.8-.8.4-.4.8-1.2 1.3-2.3l5.3-17c0-.2.2-.2.4-.3.2 0 .4 0 .5.2l7.3 16c.4.9.9 1.5 1.5 1.9.6.4 1.4.6 2.4.6.2-.1.3 0 .3.3z"/><path id="Fill-45" class="st2" d="M242.1 336.9c-.4-1.5-1.2-2.5-2.1-3.1-1-.6-2.1-.7-3.2-.4-.7.2-1.3.4-1.6.7s-.6.5-.7.8c-.1.3 0 .8.2 1.6l1.9 6.3c.1.4.3.6.6.7.3.1.8 0 1.7-.3 1.5-.5 2.5-1.2 3.1-2.3.5-1.2.6-2.5.1-4m3.1-.9c.5 1.6.3 3.2-.6 4.6-.9 1.5-2.3 2.5-4.1 3-1.1.3-2.2.6-3.3.8l1.5 4.9c.2.6.4 1.1.6 1.3.2.2.6.3 1 .4.4 0 1.1 0 1.9-.2.2 0 .3.1.3.3.1.3 0 .4-.1.5-.6.2-1.4.4-2.2.6-.8.2-1.5.4-2.1.5-.6.2-1.2.4-2 .7-.8.3-1.6.6-2.2.7-.1 0-.3-.1-.3-.3-.1-.2 0-.4.1-.4 1.1-.5 1.8-.9 2.1-1.3.3-.4.3-1 .1-1.9l-3.9-13c-.2-.6-.4-1.1-.7-1.3-.2-.2-.6-.3-1-.4-.4 0-1.1 0-1.9.2-.1 0-.3-.1-.3-.3-.1-.3 0-.4.1-.4.6-.2 1.4-.4 2.2-.6.8-.2 1.5-.4 2.1-.5.6-.2 1.2-.4 2-.7.8-.3 1.6-.6 2.2-.7 2.3-.7 4.1-.7 5.6-.1 1.3.5 2.3 1.7 2.9 3.6"/><path id="Fill-47" class="st2" d="M265.4 320.9c.1.2.1.4 0 .5-1 .7-1.7 1.2-1.9 1.6-.3.4-.2 1.1.2 1.9l3.8 8.2c1.1 2.3 1.4 4.4.9 6.2-.5 1.8-1.8 3.2-3.8 4.2-2.3 1.1-4.4 1.3-6.3.7-1.9-.6-3.3-2-4.4-4.2l-4-8.6c-.3-.6-.6-1-.8-1.2-.3-.2-.6-.3-1.1-.2-.5 0-1.1.2-1.8.4-.1.1-.3 0-.4-.3-.1-.2-.1-.4 0-.5.6-.3 1.3-.6 2.1-.9.8-.3 1.4-.6 2-.8.5-.3 1.2-.6 1.9-1 .8-.4 1.5-.8 2-1.1.1-.1.3 0 .4.3.1.2.1.4 0 .5-.7.4-1.2.8-1.5 1.1-.3.3-.5.6-.5 1 0 .3.1.8.4 1.4l3.9 8.2c1 2.1 2.1 3.5 3.4 4.1 1.3.6 2.8.5 4.7-.4 3.4-1.6 4.1-4.6 2.1-8.9l-3.7-7.9c-.4-.8-.8-1.3-1.3-1.4-.5-.1-1.3.1-2.5.4-.1.1-.3 0-.4-.3-.1-.2-.1-.4 0-.5.4-.2.9-.4 1.6-.7.7-.3 1.2-.5 1.7-.7.4-.2.9-.5 1.5-.8.6-.4 1.1-.6 1.6-.8 0 .2.1.2.2.5"/><path id="Fill-49" class="st2" d="M280.8 316.3c-1.6-2.3-3.4-2.8-5.4-1.4-.7.5-1.1.9-1.4 1.2-.3.3-.4.7-.3 1s.3.8.7 1.3l3.6 5.3c.5-.3 1.1-.6 1.8-1.1 1.3-.9 2-1.8 2.2-2.8.1-1-.3-2.1-1.2-3.5m14.2 7.8c.2.2.2.4 0 .5-.3.2-.8.5-1.5.9-.5.3-.8.5-1 .6-.2.2-.6.4-1 .8-.5.4-.8.7-1 .8l-7.6-3.4c-1.1-.5-1.8-.7-2.3-.7-.5 0-1.2.3-2.1.9l3.5 5.1c.4.5.7.9 1 1 .3.1.7.1 1.1 0 .4-.1 1-.4 1.7-.7.1-.1.3 0 .4.2.1.2.2.4 0 .5-.5.4-1.2.8-2 1.2-.7.4-1.3.8-1.8 1.1-.5.3-1.1.8-1.7 1.3-.7.5-1.3 1-1.8 1.4-.1.1-.3 0-.4-.2-.1-.2-.1-.4 0-.4.6-.5 1-1 1.3-1.3.3-.4.4-.7.4-1 0-.3-.2-.8-.6-1.3l-7.6-11.2c-.4-.5-.7-.9-1-1-.3-.1-.6-.2-1.1 0-.4.1-1 .3-1.8.7-.1.1-.3 0-.4-.2-.1-.2-.2-.4 0-.5.5-.4 1.2-.8 1.9-1.2.7-.4 1.3-.8 1.8-1.1.5-.3 1.1-.8 1.7-1.3.7-.6 1.3-1 1.9-1.4 1.8-1.2 3.4-1.8 4.9-1.7 1.5.1 2.7.8 3.6 2.1.6.8.8 1.9.6 3-.1 1.2-.6 2.3-1.5 3.4l7.7 3.5c.7.3 1.3.4 2 .3.7-.1 1.4-.4 2.3-.8.1-.1.3-.1.4.1"/><path id="Fill-51" class="st2" d="M300.6 307.7l-6.8-3.7 2.9 7.2 3.9-3.5zm12.2.4c.2.2.2.4.1.5-.5.4-1.1.9-1.7 1.5-.6.4-1 .8-1.4 1.2l-1.5 1.5c-.6.7-1.2 1.2-1.7 1.6-.1.1-.3.1-.4-.1-.2-.2-.2-.3-.1-.4.6-.6 1-1.1 1.1-1.5.1-.4.1-.7-.2-1-.2-.2-.5-.4-1-.7l-4.5-2.4-4.4 4 1.8 4.4c.2.6.5 1 .7 1.2.6.6 1.5.4 2.7-.6.1-.1.2 0 .4.2s.2.3.1.4c-.4.4-.9.8-1.5 1.2-.5.4-1 .8-1.4 1.1l-1.1 1.1c-.4.5-.8.9-1.2 1.2-.1.1-.2.1-.4-.1s-.2-.4 0-.5c.5-.6.9-1.2.9-1.8.1-.6-.1-1.5-.4-2.6l-6.2-16.8c-.1-.1 0-.3.1-.4.2-.2.3-.2.5-.1l15.6 8.2c.9.5 1.7.7 2.4.6.7-.1 1.5-.4 2.3-.9.1-.2.2-.1.4 0z"/><path id="Fill-53" class="st1" d="M161.6 81.6c-1.5.4-3.1.9-4.6 1.5 1.5-.5 3.1-1 4.6-1.5"/><path id="Fill-55" class="st2" d="M245.8 89.7c.1 0 .1.1.2.1-.5-.3-.6-.3-.2-.1"/><path id="Fill-57" class="st2" d="M81.7 161.3c.1-.2.1-.4.2-.6 0 .2-.1.4-.2.6"/><path id="Fill-59" class="st2" d="M80.9 164.5c.1-.5.3-1 .4-1.4-.2.4-.3.9-.4 1.4"/><path id="Fill-61" class="st1" d="M161.6 95.4"/><path id="Fill-63" class="st1" d="M126 124.7s-.1-.3-.1-.5c0 .1.1.3.1.5"/><path id="Fill-65" class="st1" d="M134.2 99.3c.2-.1 3.9-1.1 5.4.8.7.9.7 2 .9 3.1.1.3 3.8 1.3 4.5 2.2.2-.5 2.4-3.5 2-3.4-.7.1-1.5.8-2 1.2 0-3.6 0-10-4.5-11-2.2-.5-5 .2-6.5 1.9-.5.6-2 2.3-2 3.1-.1.6 1.8 1.7 2.2 2.1"/><path id="Fill-67" class="st1" d="M118.3 116.4c-1.9-.5-3.7-1.6-5.1-2.9-.9-.8-1.3-2.1-2.4-1.2-.9.8-1.8 1.7-2.4 2.7.5.3 1 .6 1.6.7-.2 1.1-1.2 1.7-1.4 2.8-.3 1.7 2.1.2 2.8 0 1.8-.7 1 1.3.4 2-1 1.1-1.8 2-1.8 3.5 2 .3 2.1-2 3.6-2.5 1.1-.4 1.3.5.7 1.2-.6.7-1.4 1.4-2.1 2.1-1.6 1.7-2.5 3.6-2.5 5.9 0 1.7.3 2.5 1.6 3.5.9.7 2 1.3 3.1 1.8 1.7.6 6.5 1.8 7.5-.3.2-.5 2-5.3 2.9-2.8.8 2.1 1.1 4.5 3.3 5.5 1.1.5 1.3-.9 1-1.7-.4-1.1-.4-1.9.4-2.9.8 2.7 1.1 4.3 4.3 5.1.6-1.3-2-3.8-.1-4.4-.1 1.1.9 1.5 1.3 2.4.4.9-.4 1.1.9 1.1.7 0 1.5 0 2.2-.1 2.4-.2 4.7-1 6.7-2.5 3.9-3 5.4-8.2 6.4-12.7-10.4 3.7-31.4 11.1-32.9-6.3"/><path id="Fill-69" class="st1" d="M139.4 103.6c0-.2 0-.3-.1-.5-.3-2.2-2-3.1-4.2-2.9-1.1.1-1.1 2.3-1.7 3.3-.7 1.2-1.7 2.2-2.7 3.2-.5.5-4.3 5-1.5 4.6.6-.1 1.4-.7 2-.4 1.2.5-.8 2-1 2.6 1.7-.2 3.4-.1 2.8 2.1 1.3 0 6.4 1.3 4.8-1.7-.2-.3-.8-1-.6-1.4.5-.8 1.4.1 2 .4 1.5.6 3.4.6 4.6-.5.7-.6 1-1.5 1.1-2.3.1-1.4-1.7-.2-2.6-1-1.1-1 2.2-1.3 2.5-1.7.8-1.2-1.7-1.9-2.4-2-2.1-.5-7.5-.8-7.2 2.7 1.7-.4 2.5.4 2.1 2.1-.6.4-1.2.2-1.9 0-1.2-.4-1.7.4-2.1-1.2-.9-3.5 3.7-4.7 6.1-5.4"/><path id="Fill-71" class="st1" d="M168.5 113.2c-2.1-4.9-6.2-8.5-9-12.9-.2.9-.3 1.7-.3 2.4-.1 2.5.4 5 .9 7.6.6 2.7.9 6.3-1.3 8.4-2.5 2.4-5.4 2.6-6.7 6.2-1.4 3.8-.8 7.9-3.7 11 4.4.5 5.1-2.8 7.9-5.1 1.5-1.2 3.5-.9 5.2-.2 2.1-1.8-1.1-4.3 2.6-5 1.3-.2 2.7-.2 3.9-.8.8-1.3 1.3-2.6 1.6-4.1.4-2.6-.1-5.1-1.1-7.5"/><path id="Fill-73" class="st1" d="M146.3 96.8c.4 1.1-1.2 6 .7 4.3 1.9-1.6 3.2-3.9 2.8-6.4-.4-2.3-1.9-4.2-3.6-5.7-1-.8-1.6-.8-2.5-.4-.3.1-.6.2-1 .4-1.5.6-2.9 1.3-4.1 2.2h.1c3.8-.7 6.5 2.1 7.6 5.6"/><path id="Fill-75" class="st1" d="M119.7 117.1c.6-1 .8-1.6.7-1.9.2-1.6-.4-3.1-1.1-4.7-.4-1-.9-2.1-1-3.2.6-1 1.4-1.9 2.3-2.6 2-1.5 4.4-2.3 6.7-3.1.5-.2 1-.3 1.4-.5.1-.8.4-1.6.7-2.3.5-1.3 1.3-2.5 2.2-3.5-.3.2-.6.3-.9.5-4 2.4-7.7 5.1-11.2 8.2-2.6 2.2-5 4.6-7.4 7.1 2.6 1.8 5.9 3.2 7.6 6"/><path id="Fill-77" class="st1" d="M161.6 95.4c-.4-1.4-1.4-4.4 0 0 .1.4.2.5.2.6 0-.1-.1-.3-.2-.6 1 3.1-1.2 7.4 2.8 9.1 1.5-5.4 3.5-11.7 2-17.4-.7-2.5-2.2-4.4-4.5-5.5-1.6.4-3.1.9-4.7 1.4-2.4.9-4.8 1.8-7.1 3 5.2 1.9 9.7 3.7 11.5 9.4"/><path id="Fill-79" class="st1" d="M152.5 94c1.2 6.5-7.5 8.2-7.1 14.1.3 4.1 2.9 7.3 0 11.1-1.8 2.4-4.8 3.4-6.9 5.5 5.9-.4 12.3-3.2 16.7-7.2 1.7-1.6 3.5-3.7 3.5-6.2 0-2.9-2.5-4.9-4.8-6.2.9-1.2 3.3-.9 3.5-2.8-.9-.3-1.9.2-2.9.1-1.7-.3.6-1.6 1.1-1.8 1.3-.6 2.7-.9 3.9-1.7 0-1.6-.3-3.2-1-4.7-1.1-2.5-3.2-4.3-5.7-5.5-.8-.4-4.4-1.9-6.1-1.7-.3 0-.6.2-.8.3-.1.1-.1.2-.2.3 2.6 1.9 6.2 2.9 6.8 6.4"/><path id="Fill-81" class="st1" d="M126 124.7c7.9 2.5 16.4-3.3 18.1-11.2-3 5-11.4 4-15.3.7-.9-.8-1.7-1.8-2.1-3-.4-1.3 1.4-3.2 2.2-4.1 2.2-2.6 4.2-5.4 2.6-8.9-1 3.9-5.3 4.7-8.2 6.7-1.6 1.1-2.7 2.6-2.9 4.5 2.3 1.4 2.9 2.5 1.4 4.9 1.2.7 1.8-.7 2.9-.7 1.6 0-.6 1.6-1.1 1.8-1 .3-2.4.6-2.5 1.9-.2 1.8 2.3-.2 2.9-.2 1.8 0-.9 2-1.2 2.2-1.1.9-2.1 3.7.1 3.6 1.1 0 1.6-1 2.6-1.3 1.9-.8.4 2.4.5 3.1"/><path id="Fill-83" class="st2" d="M191.9 141.5c.6-.8 1-1.6 1.2-2.5-1 1.2-1.3 2.1-1.2 2.5"/><path id="Fill-85" class="st2" d="M193.1 138.9c-4.3 6-13.7 8.6-20.3 5.1-3.2-1.6-4.6-5-5.4-8.3-.5-1.9-.8-3.9-1-5.8-.1-.9.4-2.5-.7-2.6-.7-.1-1.5-.1-2.2.1.3 1.4.9 2.8.2 4.2-.2.4-1 .9-1.1 1.2.5 1.1.6 2.4 1 3.6 1.8 4.9 5.3 8.8 10.3 10.6 3.7 1.3 8 .9 11.6-.9 2.1-1 4.9-2.6 6.5-4.7"/><path id="Fill-87" class="st2" d="M171.9 166.7c-.1 0-.1-.1-.2-.1.1.1.1.1.2.1"/><path id="Fill-89" class="st2" d="M200.2 199.8c-1.2.7-2.3 2.1-3.9 2.6 3.8 1.9 5.4-2 3.9-2.6"/><path id="Fill-91" class="st2" d="M182.7 200.3c-2.5 1.3 1.4 3.6 3 2.5-.6-1.2-2.2-1.4-3-2.5"/><path id="Fill-93" class="st2" d="M168.8 97.8c.1-.4.3-1.3.4-1.8v-.1-.1c0-.1 0-.1 0 0v.2c-.1.3-.2.9-.4 1.8 0 .1-.1.3-.1.2 0 0 .1-.1.1-.2-.3 1.4-.7 2.7-1.2 4-.4 1.2-1.6 2.6-1.5 3.9 2 2.6 4.3 5.2 5.3 8.5.7-1.1 1.5-2.2 2.6-2.9.9 5.2 6.4 6.5 9.8 9.7 2.8 2.6 6.2 8.8 1.6 11.6-2.1 1.3-7.7 2-7-2 .4-2.3 5.9-6.6 5.9-2.3.9-.2 1.1-1.3 1-2.1-.3-1.6-2.3-1.7-3.6-1.7-2.7.1-4.9 2-6.1 4.3-2.6 5.2 3.3 8.6 7.8 8.9 4.5.3 9.2-2.9 8.7-7.8s-4.3-8.8-5.7-13.4c-.9-3-.5-5.9.7-8.7 1-2.4 1.7-3.5 4.2-4.3.5-.2.1-.1 2.1-.6-2.9-2.7-4.7-14.6-1-21.3 1-1.8 1.9-3.3 1.5-4.4-9.4 0-18.4 1.1-27.2 3.2 3.1 4.4 3.2 12.5 2.1 17.4"/><path id="Fill-95" class="st2" d="M169.2 95.8"/><path id="Fill-97" class="st2" d="M169.2 96"/><path id="Fill-99" class="st2" d="M168.8 97.8z"/><path id="Fill-101" class="st2" d="M168.7 98c0 .1 0 .1 0 0"/><path id="Fill-105" class="st2" d="M156.2 267.8c-2.8-1.7-4.8-8.6-6.3-9.9 6.8.8 6 4.2 6.3 6.4 0 .2.1.4 0 .7v2.8m-6.8-30.1c-.1-.1-.1-.1 0 0-.1-.1-.1-.1 0 0-1.5-2-2.3-5.7-2.2-9 .1-2.6.3-5.3.3-7.9l.3-13.7c.3-12.8.6-25.6.7-38.4.6-.5 3.9 1.2 5 1.1-2-1.8-3.3-3.7-.3-5.4.2 0 .2.7.3.8.3 1.9.3 3.9.4 5.8.3 7.7.4 15.4.5 23.1.2 16.2.2 32.4.6 48.6v.7c-2.7-.8-4.2-3.8-5.6-5.7m-.7-88.8c1.2-.4 4.5-1.1 4.6.9 0 2.9-.4 5.9.1 8.8-.3.2-1.1.1-1.9-.2 0 .8.5 1.2 1.2 2-1 .1-2.1-.7-2.9-1-.2.8.6 2.2 1.2 2.2-1.3.5-1.9-.3-2.5-1.7-.4-3.6-.1-7.3.2-11m4.6 12.6c.3.4.1 1.2-.1 1.5-.8.1-2 .5-2.7.9 0-.9 1.5-2.6 2.8-2.4m-10.1 63v1.2c-1.6-5.9-4-11.4-5.1-17.4-.6-3.5-1.4-6.7-1.2-10.2.2-3.4.5-6.8.7-10.2.5-6.8.8-13.6 1.7-20.3.8-6.6.9-13.3 2.7-19.8-.4 3.9-.1 8 0 11.9l.3 15.4c.5 16.3 1.3 32.9.9 49.4.3-12.9 0 .3 0 0m17.6-64.8c1.4.1 3.1 1.7.3 1.9-.5 0-1.7.2-1.7-.2 0-1.2 0-1.8 1.4-1.7m-.9 5.2c-.1 0-.3-.1-.3-.3 0-.6-.3-2.1.3-2.3.6-.1 1.7-.3 2.2.1.9.5-.3 2.5-2.2 2.5m5.2 4c.2-.9 2-1 2.4-.1.3 2.5-2.8 1.7-2.4.1m-1 110.8c1 1.6 2.1 3.3 3.1 4.9-1.7-2.6-3.6-5.2-5.1-8-2.3-4.2-2.3-10.5-2.3-15.2 6.8 1.8 13.2 2.7 20.3 3.2 6.5.4 12.9 1.5 18.7 4.7 9.2 5.1 16.3 10.8 14.7 21.5-.8 5.1-5.3 11.1-10.7 10.8-5.5-.3-9.4-3.8-10-9.5-.4-4.2 2.4-9.1 7.1-7.2 3.3 1.3 5.3 5.6 1.6 7.8 4.6.1 6.5-4.9 3.7-8.3-3.9-4.9-10.2-3.7-14 .5-6.8 7.6-1.3 19.1 8 21.2 10.7 2.4 19.7-7.3 20.1-17.4.3-6.1-2.5-11.8-6.4-16.3-4-4.6-9.3-6.8-14.9-8.8 8.8-1.4 18.1 2.6 24 9.1-2.3-3-5.2-5.7-8.7-7.4-3.8-1.9-7.5-2.9-11.9-3.4 12-1.3 24.6 6.6 29.7 17.3 2.7 5.5 3.8 14.1.1 19.5-1.3 1.8-2.9 2.9-5 3.1-1.5.2-3.9-.1-2.8-2.2-1.1.7-.7 2-.4 2.3 1.1 1.3 3.8 1.1 5.2.7 3.8-1.1 6.2-4.2 7.1-8 1.8-7.1-.2-15.1-4.5-21-8.3-11.2-23.9-13.6-36.9-14.3 5.2-2.6 9.4-6.3 12.3-11.4 1.8-3.2 4.4-8.4 2.6-12.2.2 4.7-1.1 6.5-2.7 8.9 2.3-8.1-6.8-10-6-3.5.2-1.2.9-3.1 2.6-2.7 2.5.5 2.1 2.7 1.7 4.5-1.2 5.1-5.6 8.4-9.8 11-4.8 3-10.6 4.1-16.2 3.8-3.2-.2-6.3-1-9.5-1.5-2.6-.4-5.5-.5-7.7-2.1 8.4-1.1 20.9-10.5 15.3-20.1-2.2-3.8-9.7-5.9-11-.3-.7 3.2 4 5.4 6.1 3.2-1.2.3-4.7-1.3-3.9-2.9 1.3-2.7 5.7.2 6.3 2.3 1.5 5.2-5.3 8.3-9.3 8.8-1.3.2-6.8.3-6.8-1.1-.1-3.8.2-10.1.2-12.6.1-15.2.6-30.4.9-45.6.1-5 .1-9.9.4-14.9 2.2.8 5.4 1 7.5-.3 1.8-1 2.2-3.2 2.8-5 .5.3 4.7 2.1 4 3-.9 1.1-3 1.1-3.1 3.3 1.8-.7 3.8-.9 5.7-.6.8.1 2.5.9 3.3.3.7-.5-3.4-4.6-3.8-5-1.9-1.9-3.8-3.9-6.1-5.4-1.9-1.2-3.8-2.5-5.8-3.6-.8-.4-1.3-.9-1.8-.1-.6 1-1.9.2-2.7.9-.3-3.4-.2-6.8-.1-10.1 2.2 1.1 4.5 2.2 6.9 2.6 1.9.4 3.9 2.1 5.9 1.6 1.9.8 4.1 1.3 5.4-.7 1.3-2-.8-2.2-2.3-2.5-2.1-.4-4.9-1-6.8-2.1-1.3-.2-2.4-.9-3.6-1.4-1.1-.6-2.4-.7-3.4-1.3-.8-.5-1.6.5-2.3.1-.7-.4-.4-1.6-.4-2.1.1-3.2-.3-6.4-.2-9.6-1.8.1-4 2.6-5.1 3.9-1.4 1.6-.5 5.1-.5 7 0 .9-.2 1.9-1.2 2.3-.7.2-2.4.5-2.9-.3-.4-.6.1-1.8.1-2.5.2-1.8.3-3.7.4-5.5-1.2 0-2.4-.2-3.5-.1-1.3.1-2.4 1-3.6 1.4-2.8.9-5.6.7-8.5.8-1.2 0-2.4.2-3.4-.6-.9.8-1.1 1.2-2.5.9-2.2-.4-3.4-2.5-4-4.4-1.7 4.1-7.9 2.8-11.1 1.7-5.8-1.9-6.7-6.7-3.8-11.7-2 .1-.7-3.8-.2-4.7-2.5-.3-1.7-1.9-1.6-3.7.1-1.9-1.2-.4-1.8.3-1.5 1.7-2.9 3.4-4.2 5.2-4.6 6-8.7 12.5-12.1 19.3-2.9 5.9-5.4 12.1-7.2 18.4-.1.2-1.2 4.2-1.2 4.5-2.3 9.2-3.6 18.8-3.6 28.8 0 46.3 27 86.4 66.1 105.3.6-.5 1.1-1.3 1.8-1.3-.2 2.2 1.7 1.8 3.1 2.2.7.2.9 1.1 1.3 1.6.3.3.6.5.9.6.7.3 1.5.6 2.2.9 2 .7 4 1.4 6.1 2.1 9.6 3 19.8 4.9 30.3 5.3-9.7-8.9-17.5-19.8-24.7-30.9"/><path id="Fill-107" class="st2" d="M143.2 224.5c0 .3.3-12.9 0 0"/><path id="Fill-109" class="st2" d="M149.8 238.2s-.1-.2-.4-.5c.6.8.6.8.4.5"/><path id="Fill-111" class="st2" d="M164.1 279.7c-.1-.1-.1-.2 0 0"/><path id="Fill-113" class="st2" d="M149.4 237.6c0 .1 0 .1 0 0 0 .1 0 .1 0 0"/><path id="Fill-115" class="st2" d="M149.8 238.2c.1.1-.2-.3-.4-.6 0 .1.2.4.4.6"/><path id="Fill-117" class="st2" d="M149.4 237.6z"/><path id="Fill-119" class="st2" d="M149.3 237.6c.1 0 .1 0 0 0 .1 0 .1 0 0 0"/><path id="Fill-121" class="st2" d="M149.4 237.6c0 .1 0 .1 0 0 .3.4.4.5.4.6-.2-.2-.4-.5-.4-.6z"/><path id="Fill-123" class="st2" d="M149.4 237.6v.1-.1z"/><path id="Fill-125" class="st2" d="M241.6 149.6s.1.1.3.1c-.1 0-.2-.1-.3-.1"/><path id="Fill-127" class="st2" d="M209.7 152.3c.8.7 1.8.6 2.7.4.1 0 .1-.1.2-.1.3-.1.5-.2.8-.2 1.2-.4 2.4-.8 3.7-1.2 1.4-.5 2.7-1.2 4.1-1.7.7-.3 2.6 0 2.8-.9.1-.6.2-.5.9-.6 2-.1 3.6-.9 5.8-.7 2.3.2 4.7.5 6.9 1.2 1 .3 1.9.8 2.9 1.3 1.2.6 1-.2 1.2-.3 1.2.3.7.2.3.1.7.4 2.1 1.4 2.5 1.1 1.5-1.1-2.3-3-2.9-3.3-3.6-2-8-1.8-11.8-3.2-1.6-.6-3.2.4-4.9.5-2 .1-4.2 1.6-6.2 2.2-3.2.9-6.3 1.4-9.5 2-1.3.3 0 2.9.5 3.4"/><path id="Fill-129" class="st2" d="M212.4 152.7c.1 0 .2 0 .2-.1 0 0-.1 0-.2.1"/><path id="Fill-131" class="st2" d="M222.6 169.2c.6-.6 1.8-.9 2.3 0 .5 1.9-2.8 2.7-2.3 0m-4.4-3.8c1.1-.5 1.9-1.1 3.2-1.1 1.8.1-1.9 5.1-3.2 1.1m6.8-1c.2 1.1-1.5 1.3-1.6-.1.3 0 1.2.1 1.6.1m6.2-2.4c.2.7 1.4 1.8 1.4 2.1-1.2.3-3.1-1.7-4.1-2-1.1-.3-3.8-1.5-9.4-.4 1.5-2.5 10.5-2.6 12.1.3m-3.7 2.9c2.4.7 4 4.7 1.2 5.9-.7.3-1.9.4-2.4 1.1-.7 1 3.5 1 4 .9 2.5-.5 6.6-2.3 7.3-4.9.2-.7 1.4-1.3 2-1.5 1.1-.4 2.1-1.5 2.3-2.7-1.4.4-2.7.9-4.2 1 .9-.9 1.6-2 2.3-3-1.1.3-2.2.5-3.3.7.6-.7 1.4-1.5 1.4-2.5-1.2.1-2.1 1.4-3.4.9.6-.1.7-.9.8-1.5-.7.5-1.3 1-2.2 1.1.5-.5 1.7-1.8 1.5-2.6-.1-.6-5.1.9-5.7 1-1.1.1-2.3.2-3.4 0-1.2-.2-1.3-1.3-2.7-.8-2.6 1-5.2 2-7.6 3.4-1.2.7-2.4 1.5-3.6 2.1-.9.5-1 1.5-1.7 2.2-.6.6-6.2 5.3-5.1 5.8 1.1.6 2.5.2 3.7 0 1.7-.3 3.5-.4 5.2.1.4-1.4-1.5-1.6-2.1-2.4-1-1.3 2-2.4 2.9-2.6.4 3.2 2.8 5.5 6 5.4 4.3-.2 6.6-2.9 6.8-7.1"/><path id="Fill-133" class="st2" d="M192.1 217.4c-1.1-.1-2.3-.4-4.2-1.5-2-1.1-6.3 1.9-8 2.8-3.2 1.7-6.5 3.9-10.2 3.9-.1 2.1 6.3 4.2 7.8 5.1 5.2 2.9 10.6 5 16.7 4.4 5-.6 9.5-2.6 13.7-5.2 1.5-.9 6.8-3.4 6.5-5.6-5.5-.4-11.4-4.1-16.6-5.2-2.4-.5-4.8 1.4-5.7 1.3"/><path id="Fill-135" class="st2" d="M187.7 215.9c.1 0 .1.1.2.1 0 0 .1 0 .1.1-.1-.1-.2-.2-.3-.2"/><path id="Fill-137" class="st2" d="M188.1 216.1c.1.1.1.1 0 0"/><path id="Fill-139" class="st2" d="M187.7 215.9c-.5-.3-.3-.2 0 0"/><path id="Fill-141" class="st2" d="M188 216s0 .1 0 0c0 .1 0 0 0 0"/><path id="Fill-143" class="st2" d="M188.1 216.1"/><path id="Fill-145" class="st2" d="M246.6 247.3c-.3.1-1-.7-1-.8-.5-.7-.5-.9-.4-.8-1.5-3.1-1.7-7.8-1.9-11-.1-1.7.2-8.2.4-9.8.1-1.3-.3-3.3 1.2-3.6 0 4.8-.1 8 .3 14.3.2 6.2 1.9 11.4 1.4 11.7M229.6 95c0-.1.4-.3 0 0 .2-.1.4-.2.1-.2 0-.1.1-.1 0-.1.2-.1.6.2.6.4-.1-.2-.5-.3-.7-.1m81.2 99c0-43.7-24-81.7-59.4-101.8-2.3-1.2-4.4-2.1-5.2-2.5 0 0-.1 0-.2-.1-.4-.2-.3-.1.2.1s-2.5-1.3-6-3c-10.4-4.5-21.6-7.5-33.3-8.8-2.3-.2-4.6-.4-6.9-.4-1.8-.1-2.1-.1-3.3 1.2-.9 1-1.9 1.9-2.6 3.1-1 1.9-5.2 16.3 3.5 21.2-.2.5-.2.7-.6 1.1 1.8 1.1 4 1.1 6 1.1 2.8 0 5.5.5 8.2 1.2 5.2 1.3 10.6 3.1 15.2 5.9 2.9 1.8 16.1 15.8 19.8 26.8 3.7 11.1 5.6 27.1 4.1 37.1-.9 6.5-2.2 12.9-3.7 19.2-.7 3-1.5 6.2-3.3 8.9-2.8 4.4-3.7-.9-1.3-.5-4.4-2.7-6.1 7.2.5 4.5 2.7-1.1 3-4.8 6-5.1.8-.1.5-3.3.7-4.2.5-1.7 1.5-3.4 2.9-4.5 0 1.3-.8 2.5-.9 3.7 5.1.2 5.2-8.7 7.2-11.8 2.4 3.7 1.1 8.5.1 12.5-.6 2.3-1.3 4.5-2.2 6.6 0-.1-.5 1.3-.6 1.2-.5-.6-.7.1-.6.6.2 1.2-.1 2 .4 3.2.6 1.6 1.3 3.1 1.8 4.7 1.7 5 3.2 10.2 4.1 15.4 3.9 22.7-3.3 32.6-5.9 35.2-.7.7-5.1 4.1-5.6 2.2 9.8-5.2 10.4-19.9 9.8-29.5-.4-6.5-1.7-13-3.3-19.3-.2-.6-2.7-11.1-5-8.6.6 0 .1 3.4-.2 3.8-.8 1.4-3.1.4-4.1-.2-1.2-.8-2.2-2.4-3-.3-.8 2.1-1.4 4.4-2.2 6.5-2.2 5.6-5.1 10.9-8.7 15.8-1.5 2.1-3.3 3.8-5.2 5.6-1.3 1.2-5 4.1-5.1 6 1.9-.7 5.8-3.9 7.6-4.7.3 7.9.9 15.7 1.6 23.5.2 2 .6 5.4 2.6 5.9 3.6.9 6.9 3.3 10.3 4.9 5.9 2.7 12 4.5 18.4 5.6 1.3.2 2.6.5 3.9.4.6 0 1.3-.1 1.9-.1 25.5-21.5 41.6-53.5 41.6-89.3"/><path id="Fill-147" class="st2" d="M229.8 94.7s-.1.1 0 0c.2.1 0 .2-.1.2h-.1c.2-.2.6-.1.8.1 0 0-.5-.4-.6-.3"/><path id="Fill-149" class="st2" d="M229.7 94.8c0-.1 0-.1 0 0 .1-.1.1-.1 0 0"/><path id="Fill-151" class="st2" d="M229.8 94.7c-.1 0-.1 0 0 0-.1.1 0 0 0 0"/><path id="Fill-153" class="st2" d="M245.6 246c.1-.1.1-.2 0 0"/><path id="Fill-155" class="st2" d="M229.7 94.9c.3-.2-.1 0 0 0-.1.1-.1.1 0 0"/><path id="Fill-157" class="st2" d="M229.6 95"/><g id="Group-161" transform="translate(0 -.108)"><defs><filter id="Adobe_OpacityMaskFilter" filterUnits="userSpaceOnUse" x="0" y=".1" width="387.9" height="387.9"><feColorMatrix values="1 0 0 0 0 0 1 0 0 0 0 0 1 0 0 0 0 0 1 0"/></filter></defs><mask maskUnits="userSpaceOnUse" x="0" y=".1" width="387.9" height="387.9" id="mask-2"><g class="st3"><path id="path-1" class="st4" d="M387.9.1V388H0V.1z"/></g></mask><path id="Fill-159" class="st5" d="M193.9 4.7C89.5 4.7 4.5 89.6 4.5 194.1c0 104.4 85 189.4 189.4 189.4s189.4-85 189.4-189.4c0-104.5-84.9-189.4-189.4-189.4m0 383.3C87 388 0 301 0 194.1 0 87.1 87 .1 193.9.1s193.9 87 193.9 193.9c.1 107-86.9 194-193.9 194"/></g></g></svg>